# Exported from Wings 3D 1.2
mtllib border.mtl
o torus4
#24 vertices, 24 faces
v 1.15965512 1.15965512 4.4642180e-17
v 1.15965512 -1.15965512 1.8665428e-16
v -1.15965512 -1.15965512 1.8665428e-16
v -1.15965512 1.15965512 4.4642180e-17
v 1.05358910 1.05358910 0.25980762
v 1.05358910 -1.05358910 0.25980762
v -1.05358910 -1.05358910 0.25980762
v -1.05358910 1.05358910 0.25980762
v 0.84145707 0.84145707 0.25980762
v 0.84145707 -0.84145707 0.25980762
v -0.84145707 -0.84145707 0.25980762
v -0.84145707 0.84145707 0.25980762
v 0.73539105 0.73539105 1.0735819e-16
v 0.73539105 -0.73539105 1.9741465e-16
v -0.73539105 -0.73539105 1.9741465e-16
v -0.73539105 0.73539105 1.0735819e-16
v 0.84145707 0.84145707 -0.25980762
v 0.84145707 -0.84145707 -0.25980762
v -0.84145707 -0.84145707 -0.25980762
v -0.84145707 0.84145707 -0.25980762
v 1.05358910 1.05358910 -0.25980762
v 1.05358910 -1.05358910 -0.25980762
v -1.05358910 -1.05358910 -0.25980762
v -1.05358910 1.05358910 -0.25980762
vn 0.70710678 0.70710678 -9.1154285e-16
vn 0.70710678 -0.70710678 -9.3274153e-16
vn -0.70710678 -0.70710678 -9.3274153e-16
vn -0.70710678 0.70710678 -9.1154285e-16
vn 0.30343457 0.30343457 0.90324688
vn 0.30343457 -0.30343457 0.90324688
vn -0.30343457 -0.30343457 0.90324688
vn -0.30343457 0.30343457 0.90324688
vn -0.30343457 -0.30343457 0.90324688
vn -0.30343457 0.30343457 0.90324688
vn 0.30343457 0.30343457 0.90324688
vn 0.30343457 -0.30343457 0.90324688
vn -0.70710678 -0.70710678 3.3917874e-16
vn -0.70710678 0.70710678 3.1798007e-16
vn 0.70710678 0.70710678 3.1798007e-16
vn 0.70710678 -0.70710678 3.3917874e-16
vn -0.30343457 -0.30343457 -0.90324688
vn -0.30343457 0.30343457 -0.90324688
vn 0.30343457 0.30343457 -0.90324688
vn 0.30343457 -0.30343457 -0.90324688
vn 0.30343457 0.30343457 -0.90324688
vn 0.30343457 -0.30343457 -0.90324688
vn -0.30343457 -0.30343457 -0.90324688
vn -0.30343457 0.30343457 -0.90324688
g torus4_default
usemtl default
s 1
f 1//1 5//5 6//6 2//2
f 1//1 21//21 24//24 4//4
f 2//2 6//6 7//7 3//3
f 2//2 22//22 21//21 1//1
f 3//3 7//7 8//8 4//4
f 3//3 23//23 22//22 2//2
f 4//4 8//8 5//5 1//1
f 4//4 24//24 23//23 3//3
f 5//5 9//9 10//10 6//6
f 6//6 10//10 11//11 7//7
f 7//7 11//11 12//12 8//8
f 8//8 12//12 9//9 5//5
f 9//9 13//13 14//14 10//10
f 10//10 14//14 15//15 11//11
f 11//11 15//15 16//16 12//12
f 12//12 16//16 13//13 9//9
f 13//13 17//17 18//18 14//14
f 14//14 18//18 19//19 15//15
f 15//15 19//19 20//20 16//16
f 16//16 20//20 17//17 13//13
f 17//17 21//21 22//22 18//18
f 18//18 22//22 23//23 19//19
f 19//19 23//23 24//24 20//20
f 20//20 24//24 21//21 17//17
