# Exported from Wings 3D 1.2
mtllib stone.mtl
o cube1
#8 vertices, 6 faces
v -0.75000000 -0.75000000 0.0750000
v -0.75000000 0.75000000 0.0750000
v 0.75000000 0.75000000 0.0750000
v 0.75000000 -0.75000000 0.0750000
v -0.75000000 -0.75000000 -0.0750000
v -0.75000000 0.75000000 -0.0750000
v 0.75000000 0.75000000 -0.0750000
v 0.75000000 -0.75000000 -0.0750000
vn -0.57735027 -0.57735027 0.57735027
vn -0.57735027 0.57735027 0.57735027
vn 0.57735027 0.57735027 0.57735027
vn 0.57735027 -0.57735027 0.57735027
vn -0.57735027 -0.57735027 -0.57735027
vn -0.57735027 0.57735027 -0.57735027
vn 0.57735027 0.57735027 -0.57735027
vn 0.57735027 -0.57735027 -0.57735027
g cube1_default
usemtl default
s 1
f 1//1 4//4 3//3 2//2
f 1//1 5//5 8//8 4//4
f 2//2 6//6 5//5 1//1
f 3//3 7//7 6//6 2//2
f 4//4 8//8 7//7 3//3
f 6//6 7//7 8//8 5//5
